<?xml version="1.0" standalone="no"?>
<!DOCTYPE svg PUBLIC "-//W3C//DTD SVG 20010904//EN"
 "http://www.w3.org/TR/2001/REC-SVG-20010904/DTD/svg10.dtd">
<svg version="1.0" xmlns="../external.html?link=http://www.w3.org/2000/svg"
 width="1000.000000pt" height="1000.000000pt" viewBox="0 0 1000.000000 1000.000000"
 preserveAspectRatio="xMidYMid meet">
<metadata>
Created by potrace 1.11, written by Peter Selinger 2001-2013
</metadata>
<g transform="translate(0.000000,1000.000000) scale(0.100000,-0.100000)"
fill="#000000" stroke="none">
<path d="M2845 8111 c-22 -10 -54 -32 -70 -49 -18 -18 -114 -198 -232 -434
l-201 -403 -117 -360 c-65 -198 -134 -412 -155 -475 -21 -63 -97 -297 -170
-520 -72 -223 -146 -450 -165 -505 -18 -55 -58 -176 -88 -270 -30 -93 -113
-345 -183 -560 -141 -430 -147 -461 -104 -530 39 -64 331 -274 485 -350 113
-56 267 -120 315 -130 8 -2 49 -13 90 -24 101 -28 194 -47 320 -65 149 -21
207 -26 455 -41 454 -26 595 -51 780 -141 81 -39 208 -130 200 -143 -3 -5 -6
-40 -6 -78 -3 -141 39 -181 261 -254 85 -28 178 -53 205 -56 75 -6 128 25 185
109 l45 67 95 -4 c52 -2 106 -6 120 -9 14 -3 39 -8 55 -12 61 -12 210 -66 294
-107 121 -58 238 -126 526 -307 274 -171 362 -223 505 -297 347 -179 716 -280
1050 -288 113 -3 158 14 207 78 14 18 236 671 559 1645 410 1234 538 1630 540
1672 5 131 17 646 18 765 0 104 -3 136 -17 162 -57 106 -200 143 -317 81 -125
-67 -283 -93 -381 -65 -98 29 -172 88 -414 331 -244 246 -337 321 -488 390
-256 119 -545 121 -872 6 -119 -42 -320 -134 -410 -187 -16 -10 -69 -41 -117
-70 l-87 -52 -20 52 c-67 177 -197 430 -288 560 -218 311 -464 479 -773 525
-92 14 -344 6 -445 -14 -11 -2 -58 -11 -105 -19 -47 -8 -96 -17 -110 -20 -153
-31 -306 -38 -390 -17 -114 28 -215 121 -300 277 -18 33 -44 72 -58 87 -55 59
-156 81 -227 49z m193 -678 c20 -16 39 -31 42 -34 7 -8 117 -65 155 -80 177
-68 363 -72 685 -14 74 14 153 27 175 31 22 3 51 8 65 10 14 3 80 7 146 8 201
5 319 -42 460 -181 84 -82 152 -177 231 -316 58 -103 161 -337 208 -472 l28
-80 -157 -480 c-86 -264 -160 -487 -163 -495 -3 -8 -7 -19 -8 -25 -2 -5 -55
-170 -120 -365 -64 -195 -143 -434 -174 -530 -32 -96 -89 -268 -126 -382 l-68
-208 -40 78 c-264 510 -608 765 -1044 774 -96 2 -269 -8 -283 -17 -3 -1 -27
-6 -54 -9 -28 -4 -79 -13 -115 -21 -36 -7 -84 -16 -106 -19 -22 -3 -65 -10
-95 -15 -30 -5 -104 -9 -165 -7 -96 2 -117 6 -166 30 -63 30 -136 98 -185 171
l-33 50 35 110 c19 61 39 119 44 130 5 11 77 229 161 485 83 256 186 571 229
700 136 414 378 1154 385 1178 8 28 9 28 53 -5z m3728 -846 c135 -35 241 -103
379 -244 44 -45 134 -137 201 -205 130 -132 192 -184 294 -245 126 -76 253
-112 399 -114 44 -1 81 -2 81 -3 0 0 -14 -44 -31 -96 -17 -52 -32 -99 -33
-105 -2 -5 -6 -17 -9 -25 -3 -8 -94 -285 -203 -615 -253 -773 -439 -1339 -523
-1590 l-66 -200 -75 -23 c-219 -68 -331 -23 -581 234 -225 231 -228 234 -345
335 -100 86 -289 176 -439 208 -90 20 -274 25 -370 10 -161 -25 -389 -101
-557 -185 -38 -19 -68 -33 -68 -31 0 5 327 1003 515 1572 51 154 139 421 195
593 l102 312 61 44 c98 69 302 188 417 243 271 130 487 173 656 130z"/>
</g>
</svg>
